<?xml version="1.0" encoding="UTF-8"?>
<svg id="favicon" xmlns="http://www.w3.org/2000/svg" viewBox="0 0 60 60">
  <defs>
    <style>
      .cls-1 {
        fill: #c3b1c6;
      }
    </style>
  </defs>
  <path class="cls-1" d="M59.05,27.35c-.46-.8-1.13-1.47-1.94-1.93l-3.17-1.83,1.83-3.17c1.46-2.53.59-5.78-1.94-7.24-.8-.46-1.71-.7-2.64-.7h-3.66v-3.66c0-2.92-2.38-5.3-5.3-5.3-.92,0-1.83.25-2.64.71l-3.17,1.83-1.83-3.17c-.71-1.22-1.85-2.1-3.22-2.47-1.37-.37-2.8-.18-4.02.53-.8.46-1.47,1.13-1.93,1.94l-1.83,3.17-3.17-1.83c-2.53-1.46-5.78-.59-7.24,1.94-.46.8-.7,1.71-.7,2.64v3.66h-3.66c-2.92,0-5.3,2.38-5.3,5.3,0,.92.25,1.83.71,2.64l1.83,3.17-3.17,1.83c-1.22.71-2.1,1.85-2.47,3.22-.37,1.37-.18,2.8.53,4.02.46.8,1.13,1.47,1.94,1.93l3.17,1.83-1.83,3.17c-1.46,2.53-.59,5.78,1.94,7.24.8.46,1.71.7,2.64.7h3.66v3.66c0,2.92,2.38,5.3,5.3,5.3.92,0,1.83-.25,2.64-.71l3.17-1.83,1.83,3.17c.71,1.22,1.85,2.1,3.22,2.47.46.12.92.18,1.38.18.92,0,1.82-.24,2.64-.71.8-.46,1.47-1.13,1.93-1.94l1.83-3.17,3.17,1.83c.81.47,1.72.71,2.64.71.46,0,.93-.06,1.38-.18,1.37-.37,2.51-1.24,3.22-2.47.46-.8.7-1.71.7-2.64v-3.66h3.66c2.92,0,5.3-2.38,5.3-5.3,0-.92-.25-1.83-.71-2.64l-1.83-3.17,3.17-1.83c1.22-.71,2.1-1.85,2.47-3.22.37-1.37.18-2.8-.53-4.02ZM38.5,44.52h-4.14l6.03-3.48-1.83,3.17c-.06.1-.08.21-.06.31ZM30.1,46.83l-3.58-2.07h6.96l-3.17,1.83c-.1.06-.17.14-.21.24ZM21.67,44.63l-2.07-3.58,6.03,3.48h-3.66c-.11,0-.22.04-.3.1ZM13.17,30.1l2.07-3.58v6.96l-1.83-3.17c-.06-.1-.14-.17-.24-.21ZM21.5,15.48h4.14l-6.03,3.48,1.83-3.17c.06-.1.07-.21.06-.31ZM29.9,13.17l3.58,2.07h-6.96l3.17-1.83c.1-.06.17-.14.21-.24ZM38.33,15.37l2.07,3.58-6.03-3.48h3.66c.11,0,.22-.04.3-.1ZM46.84,29.89l-2.07,3.59v-6.96l1.83,3.17c.06.1.15.16.24.2ZM44.46,21.5s.04,0,.06-.01v4.14l-3.48-6.03,3.17,1.83c.08.04.16.07.25.07ZM30.53,43.28c-2.63,0-4.65-.38-6.34-1.83-1.7-1.45-2.2-3.41-2.14-4,.12-1.24.91-2.53,1-1.27,0,.06.06,1,.06,1.07,0,2.9,3.02,5.25,6.73,5.25s4.61-2.48,4.56-5.38c-.04-2.38-4.14-6.58-5.54-7.65-1.4-1.08-2.93-2.37-3.68-4.02l-.08-.18c-.33-.74-.49-1.55-.41-2.36.29-2.8,1.97-5.72,7.05-6.17,1.37-.12,2.93.39,3.98,1.26,1.37,1.22.99,2.21.95,2.45-.07.48-.41.81-.66,1.22-.34.55-.83.65-.51,1.2.27.47,1.2,1.3,1.37,1.82.17.54-.35.76-.73,1-.22.14-.79.43-.91.67-.13.26-.13.55-.12.83,0,.46.35.83.04,1.21-.33.41-.89.46-1.38.46-.59,0-1.09-.08-1.72-.3-.17-.06-.16-.25-.04-.34.15-.13.39.01.57.07.32.11.66.18,1,.21.23.02.59-.07.8-.2.4-.26.29-.98.3-1.37.01-.44.11-.84.43-1.16.14-.15.31-.26.48-.37.16-.1.45-.21.51-.39.07-.22-.17-.53-.29-.71-.13-.2-.27-.4-.4-.6-.24-.37-.44-.8-.44-1.25,0-.45.26-.78.47-1.16.2-.36.49-.66.35-1.19-.23-.85-.39-1.52-1.07-1.48-1.27.08-2.36-.11-3.08.51-1.81,1.56-.53,1.88-1.38,2.93-1.3,1.61-2.9.02-3.31,1.23-.53,2.39,2.59.5,3.55,6.25.04.25.18.47.43.65,1.49,1.04,2.99,2.06,4.35,3.28,2.46,2.21,2.66,3.35,2.68,4.37.05,3-3.33,5.44-7.44,5.44ZM18.96,19.6l-3.48,6.03v-3.66c0-.11-.04-.22-.1-.3l3.58-2.07ZM15.48,38.5v-4.14l3.48,6.03-3.17-1.83c-.1-.06-.21-.08-.31-.06ZM44.52,34.37v3.66c0,.11.04.22.1.3l-3.58,2.07,3.48-6.03ZM51.18,13.48c.76,0,1.5.2,2.14.57,2.05,1.19,2.76,3.82,1.57,5.87l-9.38,16.24v-2l8.51-14.74c.6-1.03.6-2.26,0-3.29-.59-1.03-1.66-1.65-2.85-1.65h-3.66v-1h3.66ZM40.08,5.1c.66-.38,1.4-.58,2.14-.58,2.37,0,4.3,1.93,4.3,4.3v18.76l-1-1.73V8.82c0-1.19-.62-2.26-1.65-2.85-1.03-.6-2.26-.6-3.29,0l-3.17,1.83-.5-.87,3.17-1.83ZM24.45,6.56l1.83-3.17c.38-.66.92-1.2,1.57-1.57.99-.57,2.15-.73,3.26-.43,1.11.3,2.04,1.01,2.61,2l9.38,16.24-1.73-1-8.51-14.74c-.59-1.03-1.66-1.65-2.85-1.65h0c-1.19,0-2.26.62-2.85,1.65l-1.83,3.17-.55-.32-.32-.18ZM13.48,8.82c0-.76.2-1.5.57-2.14,1.18-2.05,3.82-2.76,5.87-1.57l4.18,2.41,1.15.67s0,0,0,0l10.91,6.3h-2l-14.74-8.51c-1.03-.6-2.26-.6-3.29,0-1.03.6-1.65,1.66-1.65,2.85v3.66h-1v-3.66ZM5.1,19.92c-.38-.66-.58-1.4-.58-2.14,0-2.37,1.93-4.3,4.3-4.3h18.76l-1.73,1H8.82c-1.19,0-2.26.62-2.85,1.65s-.6,2.26,0,3.29l1.83,3.17-.87.5-1.83-3.17ZM3.39,33.72c-.66-.38-1.2-.92-1.57-1.57-1.19-2.05-.48-4.69,1.57-5.87l3.6-2.08h0l1.73-1s0,0,0,0l10.91-6.3-1,1.73L3.89,27.15c-1.03.6-1.65,1.66-1.65,2.85s.62,2.26,1.65,2.85l3.17,1.83-.5.87-3.17-1.83ZM8.82,46.52c-.76,0-1.5-.2-2.14-.57-2.05-1.19-2.76-3.82-1.57-5.87l2.08-3.6s0,0,0,0l1-1.73s0,0,0,0l6.3-10.91v2l-8.51,14.74c-.6,1.03-.6,2.26,0,3.29.6,1.03,1.66,1.65,2.85,1.65h3.66v1h-3.66ZM23.09,53.07l-3.17,1.83c-.66.38-1.4.58-2.14.58-2.37,0-4.3-1.93-4.3-4.3v-18.76l1,1.73v17.02c0,1.19.62,2.26,1.65,2.85s2.26.6,3.29,0l3.17-1.83.24.41.26.46ZM33.72,56.61c-.38.66-.92,1.2-1.57,1.57-.99.57-2.15.73-3.26.43-1.11-.3-2.04-1.01-2.61-2l-2.59-4.49-.49-.84s0,0,0,0l-6.3-10.91,1.73,1,8.51,14.74c.6,1.03,1.66,1.65,2.85,1.65s2.26-.62,2.85-1.65l1.83-3.17.74.43.13.07-1.83,3.17ZM46.52,51.18c0,.76-.2,1.5-.57,2.14-.57.99-1.5,1.7-2.61,2-1.11.3-2.27.15-3.26-.43l-16.24-9.38h2l14.74,8.51c1.03.6,2.26.59,3.29,0,1.03-.59,1.65-1.66,1.65-2.85v-3.66h1v3.66ZM55.48,42.23c0,2.37-1.93,4.3-4.3,4.3h-18.76l1.73-1h17.02c1.19,0,2.26-.62,2.85-1.65s.6-2.26,0-3.29l-1.83-3.17.87-.5,1.83,3.17c.38.66.58,1.4.58,2.14ZM58.61,31.11c-.3,1.11-1.01,2.04-2,2.61l-16.24,9.38,1-1.73,14.74-8.51c1.03-.59,1.65-1.66,1.65-2.85s-.62-2.26-1.65-2.85l-3.17-1.83.5-.87,3.17,1.83c.66.38,1.2.92,1.57,1.57.57.99.72,2.15.43,3.26Z"/>
</svg>