<?xml version="1.0" encoding="UTF-8"?>
<svg xmlns="http://www.w3.org/2000/svg" viewBox="0 0 500 500">
  <defs>
    <style>
      .cls-1 {
        fill: none;
        stroke: #c3b1c6;
        stroke-linecap: round;
        stroke-linejoin: round;
        stroke-width: 6px;
      }

      .cls-2 {
        fill: #c3b1c6;
      }
    </style>
  </defs>
  <g id="_圖層_6" data-name="圖層 6">
    <path class="cls-2" d="M250,143.62c-58.75,0-106.38,47.63-106.38,106.38s47.63,106.38,106.38,106.38,106.38-47.63,106.38-106.38-47.63-106.38-106.38-106.38ZM253.6,340.75c-17.96,0-31.77-2.58-43.34-12.48-11.59-9.92-15.02-23.33-14.65-27.36.8-8.45,6.22-17.3,6.83-8.65.03.42.41,6.83.41,7.28,0,19.82,20.61,35.89,46.03,35.89,25.42,0,31.52-16.96,31.15-36.78-.3-16.24-28.27-44.94-37.85-52.31-9.6-7.39-20-16.22-25.13-27.48l-.55-1.21c-2.28-5.05-3.36-10.6-2.79-16.11,1.96-19.12,13.47-39.12,48.18-42.17,9.36-.82,20.06,2.67,27.23,8.58,9.34,8.37,6.76,15.11,6.53,16.73-.47,3.31-2.77,5.54-4.53,8.36-2.34,3.76-5.66,4.42-3.5,8.22,1.82,3.2,8.2,8.88,9.34,12.44,1.19,3.71-2.38,5.19-4.96,6.84-1.51.97-5.42,2.95-6.24,4.6-.88,1.76-.85,3.75-.84,5.67.02,3.15,2.4,5.68.29,8.26-2.28,2.78-6.05,3.13-9.4,3.17-4.04.05-7.47-.58-11.74-2.06-1.17-.41-1.07-1.68-.28-2.36,1.03-.88,2.67.08,3.87.49,2.2.76,4.5,1.25,6.82,1.41,1.59.11,4.04-.48,5.46-1.39,2.76-1.75,2-6.68,2.07-9.38.08-3.03.77-5.75,2.94-7.96.98-1,2.09-1.79,3.26-2.55,1.09-.7,3.07-1.41,3.5-2.65.51-1.48-1.16-3.61-1.95-4.84-.89-1.38-1.87-2.71-2.75-4.09-1.62-2.53-3.03-5.49-2.99-8.56.04-3.11,1.74-5.33,3.22-7.91,1.4-2.45,3.33-4.51,2.36-8.12-1.55-5.79-2.65-10.42-7.3-10.11-8.65.57-16.16-.72-21.02,3.45-12.39,10.65-3.65,12.82-9.45,20.03-8.87,11.03-19.81.11-22.65,8.42-3.62,16.34,17.71,3.42,24.26,42.72.28,1.69,1.2,3.23,2.94,4.44,10.17,7.1,20.47,14.1,29.72,22.41,16.79,15.08,18.18,22.92,18.3,29.89.35,20.53-22.75,37.18-50.81,37.18Z"/>
  </g>
  <g id="_圖層_8" data-name="圖層 8">
    <path class="cls-1" d="M375,395v19.54c0,23.09-25,37.53-45,25.98l-16.93-9.77-17.32-10-25.75-14.87-18.85-10.88-1.15-.66-33.49-19.34-58.01-33.49,20,34.64,32.65,18.85,18.85,10.88,20,11.55,35.75,20.64,17.32,10,16.93,9.77c23.9,13.8,54.56,5.58,68.36-18.32,4.34-7.52,6.64-16.16,6.64-24.98v-19.54s-20,0-20,0Z"/>
    <path class="cls-1" d="M430.75,313.07l9.77,16.93c11.55,20-2.89,45-25.98,45h-19.54s-20,0-20,0h-29.74s-21.77,0-21.77,0h-1.32s-38.68,0-38.68,0h-66.99s34.64,20,34.64,20h37.7s21.77,0,21.77,0h23.09s41.28,0,41.28,0h20s19.54,0,19.54,0c27.59,0,50.04-22.45,50.04-50.05,0-8.68-2.33-17.31-6.74-24.95l-9.77-16.93-17.32,10Z"/>
    <path class="cls-1" d="M438.07,214.25l16.93,9.77c20,11.55,20,40.41,0,51.96l-16.93,9.77-17.32,10-25.75,14.87-18.85,10.88-1.15.66-33.49,19.34-58.01,33.49h40s32.65-18.85,32.65-18.85l18.85-10.88,20-11.55,35.75-20.64,17.32-10,16.93-9.77c23.9-13.8,32.11-44.46,18.32-68.36-4.34-7.52-10.68-13.83-18.32-18.24l-16.93-9.77-10,17.32Z"/>
    <path class="cls-1" d="M395,125h19.54c23.09,0,37.53,25,25.98,45l-9.77,16.93-10,17.32-14.87,25.75-10.88,18.85-.66,1.15-19.34,33.49-33.49,58.01,34.64-20,18.85-32.65,10.88-18.85,11.55-20,20.64-35.75,10-17.32,9.77-16.93c13.8-23.9,5.58-54.56-18.32-68.36-7.52-4.34-16.16-6.64-24.98-6.64h-19.54s0,20,0,20Z"/>
    <path class="cls-1" d="M313.07,69.25l16.93-9.77c20-11.55,45,2.89,45,25.98v19.54s0,20,0,20v29.74s0,21.77,0,21.77v1.32s0,38.68,0,38.68v66.99s20-34.64,20-34.64v-37.7s0-21.77,0-21.77v-23.09s0-41.28,0-41.28v-20s0-19.54,0-19.54c0-27.59-22.45-50.04-50.05-50.04-8.68,0-17.31,2.33-24.95,6.74l-16.93,9.77,10,17.32Z"/>
    <path class="cls-1" d="M214.25,61.93l9.77-16.93c11.55-20,40.41-20,51.96,0l9.77,16.93,10,17.32,14.87,25.75,10.88,18.85.66,1.15,19.34,33.49,33.49,58.01v-40s-18.85-32.65-18.85-32.65l-10.88-18.85-11.55-20-20.64-35.75-10-17.32-9.77-16.93c-13.8-23.9-44.46-32.11-68.36-18.32-7.52-4.34-13.83,10.68-18.24,18.32l-9.77,16.93,17.32,10Z"/>
    <path class="cls-1" d="M125,105v-19.54c0-23.09,25-37.53,45-25.98l16.93,9.77,17.32,10,25.75,14.87,18.85,10.88,1.15.66,33.49,19.34,58.01,33.49-20-34.64-32.65-18.85-18.85-10.88-20-11.55-35.75-20.64-17.32-10-16.93-9.77c-23.9-13.8-54.56-5.58-68.36,18.32-4.34,7.52-6.64,16.16-6.64,24.98v19.54s20,0,20,0Z"/>
    <path class="cls-1" d="M69.25,186.93l-9.77-16.93c-11.55-20,2.89-45,25.98-45h19.54s20,0,20,0h29.74s21.77,0,21.77,0h1.32s38.68,0,38.68,0h66.99s-34.64-20-34.64-20h-37.7s-21.77,0-21.77,0h-23.09s-41.28,0-41.28,0h-20s-19.54,0-19.54,0c-27.59,0-50.04,22.45-50.04,50.05,0,8.68,2.33,17.31,6.74,24.95l9.77,16.93,17.32-10Z"/>
    <path class="cls-1" d="M61.93,285.75l-16.93-9.77c-20-11.55-20-40.41,0-51.96l16.93-9.77,17.32-10,25.75-14.87,18.85-10.88,1.15-.66,33.49-19.34,58.01-33.49h-40s-32.65,18.85-32.65,18.85l-18.85,10.88-20,11.55-35.75,20.64-17.32,10-16.93,9.77c-23.9,13.8-32.11,44.46-18.32,68.36,4.34,7.52,10.68,13.83,18.32,18.24l16.93,9.77,10-17.32Z"/>
    <path class="cls-1" d="M105,375h-19.54c-23.09,0-37.53-25-25.98-45l9.77-16.93,10-17.32,14.87-25.75,10.88-18.85.66-1.15,19.34-33.49,33.49-58.01-34.64,20-18.85,32.65-10.88,18.85-11.55,20-20.64,35.75-10,17.32-9.77,16.93c-13.8,23.9-5.58,54.56,18.32,68.36,7.52,4.34,16.16,6.64,24.98,6.64h19.54s0-20,0-20Z"/>
    <path class="cls-1" d="M186.93,430.75l-16.93,9.77c-20,11.55-45-2.89-45-25.98v-19.54s0-20,0-20v-29.74s0-21.77,0-21.77v-1.32s0-38.68,0-38.68v-66.99s-20,34.64-20,34.64v37.7s0,21.77,0,21.77v23.09s0,41.28,0,41.28v20s0,19.54,0,19.54c0,27.59,22.45,50.04,50.05,50.04,8.68,0,17.31-2.33,24.95-6.74l16.93-9.77-10-17.32Z"/>
    <path class="cls-1" d="M285.75,438.07l-9.77,16.93c-11.55,20-40.41,20-51.96,0l-9.77-16.93-10-17.32-14.87-25.75-10.88-18.85-.66-1.15-19.34-33.49-33.49-58.01v40s18.85,32.65,18.85,32.65l10.88,18.85,11.55,20,20.64,35.75,10,17.32,9.77,16.93c13.8,23.9,44.46,32.11,68.36,18.32,7.52-4.34,13.83-10.68,18.24-18.32l9.77-16.93-17.32-10Z"/>
  </g>
</svg>