<?xml version="1.0" encoding="UTF-8"?>
<svg id="favicon_frame" xmlns="http://www.w3.org/2000/svg" viewBox="0 0 60 60">
  <defs>
    <style>
      .cls-1, .cls-2 {
        fill: none;
      }

      .cls-2 {
        stroke: #c0afc3;
        stroke-miterlimit: 10;
      }
    </style>
  </defs>
  <path class="cls-1" d="M13.2884554908,20.3515567109l1.9998783297-1.154601358,2.477905769-1.4306632041,3.4638678803-1.9998156946.828247236-.4782101623-.5521240234-.0000001913-2.3092651367-.0000008-3.9086914062-.000001354-2.0001831055-.0000006929-4.3164672852-.0000014953c-1.9791259766-.0000006856-3.2160651953,2.1425159758-2.2265028008,3.8564445412l2.1584459706,3.7385261383-1.732239116,1.0001214702,1.7321780808-1.0000604351,4.3849496075-2.5317367623Z"/>
  <path class="cls-1" d="M10.7031860352,29.9999933154l1.1546027436-1.9998775297,1.4306649209-2.4779047778,1.9998180944-3.4638664947.478149701-.8282469047-.4780884745.2760618461-1.9998783297,1.154601358-3.3850714778,1.9543445305-1.7321780808,1.0001214703-3.7381599273,2.1582018301c-1.7139896006.9895623945-1.7139294224,3.4635003828-.0000015426,4.4530639648l3.7385246429,2.1583875255-1.0001226704,1.7322994582,1.0001226704-1.7322384231,2.5316177299-4.3849478535Z"/>
  <path class="cls-1" d="M49.2968139649,29.9999456495l-1.1546027436,1.9999385649-1.4306649209,2.4779047778-1.9998180944,3.4638054596-.4782107362.8283079398.4781495097-.2760618461,1.9998783297-1.1546623932,3.3850714778-1.9543445305,1.7321780808-1.0000604351,3.7381599273-2.1582628652c1.7139896006-.9895623945,1.7139294224-3.4635003828.0000015426-4.4530029297l-3.7385246429-2.1584485607,1.0001226704-1.7322384231-1.0001226704,1.7321773879-2.5316177299,4.3849478535Z"/>
  <path class="cls-1" d="M11.857726358,31.9998106099l-1.9543468757,3.3850090886-1.0000616352,1.7322384231-2.1582654551,3.738158432c-.989563582,1.713988915.2474351875,3.8564453982,2.2265611641,3.8564460838l4.3168945312.0000014954-.0000592812-5.0632324219.0000008-2.3092651367.0000009912-2.8612670898.0000013855-3.9996948242.0000003313-.9564208984-.2760621774.4781493184-1.1546637787,1.9998775297Z"/>
  <path class="cls-1" d="M39.6483822539,13.2883944556l1.1546623931,1.9999393648,1.430602169,2.477905769,1.9998767298,3.4638068451.4782101623.8283082711.0000001913-.5521240234.0000008-2.3092651367.000001354-3.9086914062.0000006929-2.0001831055.0000014953-4.3164672852c.0000006856-1.9791259766-2.1425159758-3.2160651953-3.8564445412-2.2265028008l-3.7385261383,2.1584459706-1.0001214702-1.732239116,1.0000604351,1.7321780808,2.5316757271,4.3848885723Z"/>
  <path class="cls-1" d="M48.142273642,28.000128355l1.9543468757-3.3850090886,1.0000616352-1.7321773879,2.1582654551-3.7382194672c.989563582-1.7139278799-.2474351875-3.8564453982-2.2265611641-3.8563850486l-4.3168945312-.0000014954.0000592812,5.0632324219-.0000008,2.3092651367-.0000009912,2.8612670898-.0000013855,3.9996948242-.0000003313.9563598633.2760621774-.4781493184,1.1546637787-1.9998775297Z"/>
  <path class="cls-1" d="M30.0000066846,10.703125l1.9998775297,1.1546637787,2.4779047779,1.4306038857,3.4638664947,1.9998791296.8282469047.4782107361,1.9998767298,3.4638068451-1.9998767298-3.4638678803-.2760618461-.4781495097-1.154601358-1.9998783297-1.9543445305-3.3850104426-1.0001214703-1.7321780808-2.15820183-3.7382209625c-.9895623946-1.7139285655-3.4635003828-1.7139294224-4.4530639649.0000594926l-2.1584485607,3.7385246429-1.7322384231-1.0001226704,1.7321773879,1.0001226704,4.3850088887,2.5315566948Z"/>
  <polygon class="cls-1" points="44.7117323226 26.0580495299 44.7117323226 26.0579884947 40.7697791214 19.2302893753 33.9420216979 15.2882704085 26.0580495299 15.2882676774 19.2302893753 19.2302208786 15.2882704085 26.0579783021 15.2882676774 33.9419504701 19.2302208786 40.7697106247 26.0579783022 44.7116685563 26.0581003725 44.7117295915 33.9419504701 44.7117323226 40.7697106247 40.7697180862 44.7117295915 33.9420216979 44.7117323226 26.0580495299"/>
  <path class="cls-1" d="M20.3515682891,13.2884488061l2.3092651367.0000008,2.8612670898.0000009912,3.9996948242.0000013855.9564208984.0000003313-.4781493184-.2760621774-1.9998775297-1.1546637787-3.3850701238-1.9543468757-1.7321773879-1.0000616352-3.738158432-2.1582654551c-1.713988915-.989563582-3.8564453982.2474351875-3.8564460838,2.2265611641l-.0000014954,4.3168334961-2.0002441406.0000603423,2.0001831055.0000006929,5.0632934571-.0000592812Z"/>
  <path class="cls-1" d="M20.3516177461,46.7115445093l-1.1546623932-1.9998783297-1.430602169-2.477905769-1.9998767298-3.4638678803-.4782101623-.8283082711v.0000610352s-.0000001913.5521240234-.0000001913.5521240234l-.0000008,2.3092651367-.000001354,3.9086914062-.0000006929,2.0001831055-.0000014953,4.3164672852c-.0000006856,1.9791259766,2.1425159758,3.2160651953,3.8564445412,2.2265028008l3.7385261383-2.1584459706,1.0001214702,1.732239116-1.0000604351-1.732239116-2.5316757271-4.3848885723Z"/>
  <path class="cls-1" d="M31.9998106099,48.1422126068l3.3850701238,1.9543468757,1.7321773879,1.0001226704,3.7381584321,2.1582044199c1.713988915.989563582,3.8564453982-.2474351875,3.8564460838-2.2265001289l.0000014954-4.3168945312-5.0632324219.0000592812-2.3092651367-.0000008-2.8612670898-.0000009912-3.9996948242-.0000013855-.9564208984-.0000003313.4781493184.2760621774,1.9998775297,1.1546027436Z"/>
  <path class="cls-1" d="M29.9999933154,49.2968139648l-1.9998775297-1.1546027436-2.4779047778-1.4306649209-3.4638664947-1.9998180944-.8282469047-.4782107361.2760618461.4781495097,1.154601358,1.9998783297,1.9543445305,3.3850104426,1.0001214702,1.732239116,2.1582018301,3.7381599273c.9895623945,1.7139896006,3.4635003828,1.7139294224,4.4530639648.0000015426l2.1584485607-3.7385246429,1.7322384231,1.0000616352-1.7321773879-1.0000616352-4.3850088886-2.53161773Z"/>
  <path class="cls-2" d="M19.1447062997,53.2548790521c-1.7139285655.9895623946-3.8564452268-.2473768242-3.8564445412-2.2265028008l.0000014953-4.3164672852.0000006929-2.0001831055.000001354-3.9086914062.0000008-2.3092651367.0000001913-.5521240234v-.0000610352s.0000013855-3.9996337891.0000013855-3.9996337891l.0000027311-7.883972168-1.9998180944,3.4638054596-.0000003313.9564208984-.0000013855,3.9996948242-.0000009912,2.8612670898-.0000008,2.3092651367.0000592812,5.0632324219h0v.0000610352s-.0000006929,2.0001220703-.0000006929,2.0001220703v.0000610352s-.0000014953,4.3165893555-.0000014953,4.3165893555c-.0001226426,1.6520385742.853941786,3.1323245146,2.2847276327,3.9582527446,1.431762409.8264775468,3.1402585027.8267222792,4.5716552733.0003067594l3.7384651032-2.1583849354-1.0001214702-1.732239116-3.7385261383,2.1584459706Z"/>
  <path class="cls-2" d="M32.2264926082,55.5669563377c-.989563582,1.7139278799-3.4635015703,1.713988058-4.4530639648-.0000015426l-2.1582018301-3.7381599273-1.0001214702-1.732239116-1.9543445305-3.3850104426-1.154601358-1.9998783297-.2760618461-.4781495097-1.9998767298-3.4638068451-3.9419532012-6.8277601546-.0000013855,3.9996337891.4782101623.8283082711,1.9998767298,3.4638678803,1.430602169,2.477905769,1.1546623932,1.9998783297,2.5316757271,4.3848885723,1.0000604351,1.732239116,2.1583239003,3.7382819977c.8259272387,1.4307864189,2.3056632707,2.2857063651,3.9577628801,2.2855848671,1.6531982422-.0001214976,3.1328738311-.8541859265,3.9592903425-2.2855821246l2.1584485607-3.7384636078-1.7322384231-1.0000616352-2.1584485607,3.7385246429Z"/>
  <path class="cls-2" d="M44.7116641328,46.7114919127l-.0000014954,4.3168945312c-.0000006856,1.9790649414-2.1424571688,3.216063711-3.8564460838,2.2265001289l-3.7381584321-2.1582044199-1.7321773879-1.0001226704-3.3850701238-1.9543468757-1.9998775297-1.1546027436-.4781493184-.2760621774-3.4638054596-1.9998180944h.0001220703s-.0001220703-.0000610352-.0001220703-.0000610352l-6.8277574235-3.9419579316,1.9998767298,3.4638068451.8282469047.4782107361,3.4638664947,1.9998180944,2.4779047778,1.4306649209,1.9998775297,1.1546027436,4.3850088886,2.53161773,1.7321773879,1.0000616352,3.7382805023,2.1583264903c1.4306637763.8261113354,3.1396481512.8266002087,4.5703124998.0004898645,1.4316409114-.8267206955,2.2860725762-2.306212587,2.2860731488-3.9590446182l.0000625305-4.3167724609-2.0001831055-.0000006929h-.0000610352Z"/>
  <path class="cls-2" d="M26.0581003725,44.7117295915l3.4636833893,1.9998180944.9564208984.0000003313,3.9996948242.0000013855,2.8612670898.0000009912,2.3092651367.0000008,5.0632324219-.0000592812h.0000610352s2.0001831055.0000006929,2.0001831055.0000006929l4.3165893555.0000014953c1.6520385742.0001226426,3.1323245146-.853941786,3.9582527446-2.2847276327.8264775468-1.431762409.8267222792-3.1402585027.0003067594-4.5716552733l-2.1583849354-3.7384651032-1.732239116,1.0001214702,2.1584459706,3.7385261383c.9895623946,1.7139285655-.2473768242,3.8564452268-2.2265028008,3.8564445412l-4.3164672852-.0000014953-2.0001831055-.0000006929-3.9086914062-.000001354-2.3092651367-.0000008-.5521240234-.0000001913-3.9996948242-.0000013855-7.8838500977-.000002731Z"/>
  <polygon class="cls-2" points="29.5217837617 46.7115476859 26.0581003725 44.7117295915 26.0579783021 44.7117295915 29.5217837617 46.7115476859"/>
  <path class="cls-2" d="M56.5669569378,26.0412079335l-3.7384025726-2.1583875255-1.0001226704,1.7322384231,3.7385246429,2.1584485607c1.7139278799.9895025468,1.713988058,3.4634405351-.0000015426,4.4530029297l-3.7381599273,2.1582628652-1.7321780808,1.0000604351-3.3850714778,1.9543445305-1.9998783297,1.1546623932-.4781495097.2760618461-3.4638068451,1.9998156946-6.8277601546,3.9420142364,3.9996948242.0000013855.828247236-.4782101623,3.4638678803-1.9998767298,2.477905769-1.430602169,1.9998783297-1.1546623932,4.3849496075-2.5316757271,1.7321780808-1.0001214703,3.7382819976-2.1582628652c1.4307864189-.8259272387,2.2857063651-2.3057243059,2.2855848671-3.9577628801-.0001214976-1.6531982422-.8541859264-3.1329348662-2.2855821245-3.9593513777Z"/>
  <path class="cls-2" d="M46.7114919127,15.2883358672l4.3168945312.0000014954c1.9791259766-.0000603496,3.2161247461,2.1424571688,2.2265611641,3.8563850486l-2.1582654551,3.7382194672-1.0000616352,1.7321773879-1.9543468757,3.3850090886-1.1546637787,1.9998775297-.2760621774.4781493184v.0000610352s-1.9998180945,3.4638054596-1.9998180945,3.4638054596l-3.9420189667,6.8276963884,3.4638068451-1.9998156946.4782107362-.8283079398,1.9998180944-3.4638054596,1.4306649209-2.4779047778,1.1546027436-1.9999385649,2.5316177299-4.3849478535,1.0001226704-1.7321773879,2.1582654551-3.7382805024c.8261113354-1.4306637763.8266612439-3.1396481511.0004898645-4.5703124998-.8267206955-1.4316409114-2.3061515518-2.2861336114-3.9589835831-2.2861341839l-4.3168334961-.0000014954-.0000006929,2.0001831055v.0000610352Z"/>
  <path class="cls-2" d="M40.8552937003,6.7451209479c1.7139285655-.9895623946,3.8564452268.2473768242,3.8564445412,2.2265028008l-.0000014953,4.3164672852-.0000006929,2.0001831055-.000001354,3.9086914062-.0000008,2.3092651367-.0000001913.5521240234-.0000013855,3.9996337891v.0000610352s-.0000027311,7.883972168-.0000027311,7.883972168l1.9998180945-3.4638664947.0000003313-.9563598633.0000013855-3.9996948242.0000009912-2.8612670898.0000008-2.3092651367-.0000592812-5.0632324219h0v-.0000610352s.0000006929-2.0001831055.0000006929-2.0001831055l.0000014953-4.3165893555c.0001226426-1.6520385742-.853941786-3.1323245146-2.2847276327-3.9582527446-1.431762409-.8264775468-3.1402585027-.8267222792-4.5716552733-.0003067594l-3.7384651032,2.1583849354,1.0001214702,1.732239116,3.7385261383-2.1584459706Z"/>
  <polygon class="cls-2" points="46.7115476859 30.4781552031 44.7117295915 33.9420216979 46.7115476859 30.4782162383 46.7115476859 30.4781552031"/>
  <path class="cls-2" d="M27.7735073918,4.4330436623c.989563582-1.713988915,3.4635015703-1.713988058,4.4530639649-.0000594926l2.15820183,3.7382209625,1.0001214703,1.7321780808,1.9543445305,3.3850104426,1.154601358,1.9998783297.2760618461.4781495097,1.9998767298,3.4638678803,3.9419532012,6.8276991194.0000013855-3.9996337891-.4782101623-.8283082711-1.9998767298-3.4638068451-1.430602169-2.477905769-1.1546623931-1.9999393648-2.5316757271-4.3848885723-1.0000604351-1.7321780808-2.1583239003-3.7382819977c-.8259272387-1.4307864189-2.3056632707-2.2857063651-3.9577628801-2.2855848671-1.6531982422.0001214976-3.132873831.8541248913-3.9592903425,2.2855210894l-2.1584485607,3.7384636078,1.7322384231,1.0001226704,2.1584485607-3.7385246429Z"/>
  <path class="cls-2" d="M15.2883373626,8.9716135561c.0000006856-1.9791259766,2.1424571688-3.2161247461,3.8564460838-2.2265611641l3.738158432,2.1582654551,1.7321773879,1.0000616352,3.3850701238,1.9543468757,1.9998775297,1.1546637787.4781493184.2760621774,3.4638054596,1.9998180944,6.8277574235,3.9420189668-1.9998767298-3.4638068451-.8282469047-.4782107361-3.4638664947-1.9998791296-2.4779047779-1.4306038857-1.9998775297-1.1546637787-4.3850088887-2.5315566948-1.7321773879-1.0001226704-3.7382805024-2.1582654551c-1.4306637763-.8261723706-3.1396481511-.8266612439-4.5703124998-.0004898645-1.4316409114.8266596603-2.2860725762,2.3061515518-2.2860731488,3.9589835831l-.0000625306,4.3168334961,2.0002441406-.0000603423.0000014954-4.3168334961Z"/>
  <path class="cls-2" d="M6.7451209479,19.1447062997c-.9895623946-1.7139285655.2473768242-3.8564452268,2.2265028008-3.8564445412l4.3164672852.0000014953,2.0001831055.0000006929,3.9086914062.000001354,2.3092651367.0000008.5521240234.0000001913,3.9996948242.0000013855,7.883972168.0000027311-3.4638054596-1.9998180944-.9564208984-.0000003313-3.9996948242-.0000013855-2.8612670898-.0000009912-2.3092651367-.0000008-5.0632934571.0000592812-2.0001831055-.0000006929-4.3165893555-.0000014953c-1.6520385742-.0001226426-3.1323245146.853941786-3.9582527446,2.2847276327-.8264775468,1.431762409-.8267222792,3.1402585027-.0003067594,4.5716552733l2.1583849354,3.7384651032,1.732239116-1.0001214702-2.1584459706-3.7385261383Z"/>
  <path class="cls-2" d="M4.4330436623,32.2264926082c-1.7139278799-.989563582-1.713988058-3.4635015703.0000015426-4.4530639648l3.7381599273-2.1582018301,1.7321780808-1.0001214703,3.3850714778-1.9543445305,1.9998783297-1.154601358.4780884745-.2760618461.0000610352-.0000610351,3.4638068451-1.9998156946,6.8277601546-3.9419532012-3.9996948242-.0000013855-.828247236.4782101623-3.4638678803,1.9998156946-2.477905769,1.4306632041-1.9998783297,1.154601358-4.3849496075,2.5317367623-1.7321780808,1.0000604351-3.7382819977,2.1583239003c-1.4307864189.8258662036-2.2857063651,2.3056632707-2.2855848671,3.9577628801.0001214976,1.6531372071.8541859265,3.1328738311,2.2855821246,3.9592903425l3.7384025726,2.1584485606,1.0001226704-1.7322994582-3.7385246429-2.1583875255Z"/>
  <path class="cls-2" d="M13.2885080873,44.7116641328l-4.3168945312-.0000014954c-1.9791259766-.0000006856-3.2161247461-2.1424571688-2.2265611641-3.8564460838l2.1582654551-3.738158432,1.0000616352-1.7322384231,1.9543468757-3.3850090886,1.1546637787-1.9998775297.2760621774-.4781493184,1.9998180944-3.4638054596,3.9420189668-6.8277574235-3.4638068451,1.9998767298h-.0000610352s-.478149701.8282469047-.478149701.8282469047l-1.9998180944,3.4638664947-1.4306649209,2.4779047778-1.1546027436,1.9998775297-2.5316177299,4.3849478535-1.0001226704,1.7322384231-2.1582654551,3.7382805024c-.8261113354,1.4306637763-.8266612439,3.1396481511-.0004898645,4.5703124998.8267206955,1.4316409114,2.3061515518,2.2860725762,3.9589835831,2.2860731488l4.3168334961.0000014954.0000006929-2.0001220703v-.0000610352Z"/>
  <polygon class="cls-2" points="15.766421495 21.2300976084 15.7664825302 21.2300976084 19.2302893753 19.2302208786 15.7664825302 21.2300365733 15.766421495 21.2300976084"/>
</svg>