<?xml version="1.0" encoding="UTF-8"?>
<svg id="logo" xmlns="http://www.w3.org/2000/svg" viewBox="0 0 200 60">
  <defs>
    <style>
      .cls-1 {
        fill: #c0afc3;
      }

      .cls-2 {
        fill: #c3b1c6;
      }
    </style>
  </defs>
  <path class="cls-1" d="M197.6,50.93s-.02,0-.03,0c0,0-.01,0-.02,0h-2.41s0,0,0,0h-2c-.48,0-1.29-1.12-2.43-3.36-1.58-3.14-3.45-7.6-5.62-13.39-2.35-6.29-3.67-9.79-3.96-10.49-1.75-4.23-2.79-7.01-3.12-8.33-.31-1.16-.47-1.92-.47-2.28s.2-.79.59-1.29c.33-.42.55-.68.64-.79.09-.11.19-.23.3-.37,0-.22-.07-.41-.22-.57-.15-.16-.3-.24-.47-.24-.03,0-.09.02-.2.05-.18.05-.37.09-.55.14-1.3.27-2.43.48-3.39.62-.21.04-.45.39-.72,1.05-.33.86-.78,1.84-1.34,2.94-.64,1.3-3.35,7.17-8.11,17.61-2.53,5.67-4.98,11.2-7.37,16.59-.1.22-.21.45-.33.66h0c-.44.76-1.28,1.16-2.14,1.02-.23-.04-.47-.08-.72-.13-.99-.2-1.7-.38-2.14-.55-.73-.31-1.24-.73-1.54-1.26-.3-.53-.45-1.14-.45-1.83V13.14c0-.69.14-1.31.41-1.87.27-.56.8-.97,1.59-1.22.64-.2,1.39-.37,2.24-.5.21-.02.42-.04.66-.06.92-.07,2.21-.16,3.14.22.4.17,1.11.97,1.47.74.37-.24.63-.73.47-1.17-.27-.76-.96-1.75-1.53-2.08-.13-.07-.27-.11-.42-.11h-20.63.01s-4.32,0-4.32,0c-.66,0-1.55-.01-2.54.01-.12.27.02.4.62.69.63.3,1.5.5,2.46.43.45-.03.88.15,1.22.46.42.37.99.51,1.54.39.33,0,.52.32.56.96-.12,1.12-7.53,20.53-8.74,23.25-.96,2.26-1.83,4.3-2.62,6.14-.27.7-.55,1.05-.84,1.05s-.43-.39-.75-1.05c-1.23-2.49-12.35-24.17-12.73-27.11-.26-1.98.81-3.33,2.82-3.33.28,0,3.12.1,3.12.1,0,0,0,0,.02,0h1.85s.03,0,.05,0c.02,0,.04,0,.07,0,.57,0,1.04-.44,1.04-.99s-.46-.99-1.04-.99c-.01,0-.02,0-.03,0,0,0-.01,0-.02,0h-2.41s-12.43,0-12.43,0c-3.35,0-2.61.35-6.03.8,0,0,0,0,0,0v-.57c0-.13-.1-.23-.23-.23h-1.65c-.13,0-.23.1-.23.23v.98h0c-.23.22-.3.58-.21.99.06.27.14,1.51.4,1.74.92.83,1.62,2.11,1.62,3.15h0s-3.2,25.17-3.2,25.17h0c-.07.9,0,1.81.18,2.69.19.94,1.97,4.47-.2,5.55l-.04-.02c-7-18.74-15.89-35.15-18.41-38.62-.84-1.15-2.17-1.88-3.59-1.88,0,0-.02,0-.02,0h-7.25c-.55,0-1.06.39-1.1.94-.05.61.43,1.13,1.03,1.13h1.29c1.49,0,2.38.21,2.69.62.31.41.46,1.43.46,3.04v31.6h0c-.4,3.56-.17,4.62-2.43,6.48-.4.33-1.02.2-1.54.16-.13,0-.23-.02-.27-.03-.53-.19-.94-.59-1.2-1.09-.4-.76-.83-1.58-1.25-2.39-1.58-3.14-3.45-7.6-5.62-13.39-2.35-6.29-3.67-9.79-3.96-10.48-1.75-4.23-2.79-7.01-3.12-8.33-.31-1.16-.47-1.92-.47-2.28s.2-.79.59-1.29c.33-.42.55-.68.64-.79.09-.11.19-.23.3-.37,0-.22-.07-.41-.22-.57-.15-.16-.3-.24-.47-.24-.03,0-.09.02-.2.05-.18.05-.37.09-.56.14-1.3.27-2.43.47-3.39.62-.21.04-.45.39-.72,1.05-.33.86-.78,1.84-1.34,2.94-.64,1.3-3.35,7.17-8.11,17.61-2.54,5.71-5.01,11.27-7.41,16.69-.07.16-.15.31-.23.46-.59,1.03-1.06,1.54-1.43,1.54h-2.72s-.02-.02,0-.03c2.98-1.72,4.89-4.37,4.83-7.35-.03-1.76-.38-3.74-4.62-7.55-2.34-2.1-4.94-3.87-7.5-5.66-.44-.31-.67-.69-.74-1.12-1.65-9.92-7.04-6.66-6.13-10.79.72-2.1,3.48.66,5.72-2.13,1.46-1.82-.74-2.37,2.39-5.06,1.23-1.05,3.12-.73,5.31-.87,1.17-.08,1.45,1.09,1.84,2.55.24.91-.24,1.43-.6,2.05-.37.65-.8,1.21-.81,2-.01.77.35,1.52.76,2.16.22.35.47.68.7,1.03.2.31.62.85.49,1.22-.11.31-.61.49-.88.67-.3.19-.58.39-.82.64-.55.56-.72,1.24-.74,2.01-.02.68.17,1.92-.52,2.37-.36.23-.98.38-1.38.35-.59-.04-1.17-.16-1.72-.36-.3-.11-.72-.35-.98-.12-.2.17-.23.49.07.6,1.08.37,1.94.53,2.96.52.85,0,1.8-.1,2.37-.8.53-.65-.07-1.29-.07-2.09,0-.48,0-.99.21-1.43.21-.41,1.19-.92,1.57-1.16.65-.42,1.55-.79,1.25-1.73-.29-.9-1.9-2.33-2.36-3.14-.55-.96.29-1.13.88-2.08.44-.71,1.02-1.27,1.14-2.11.06-.41.71-2.11-1.65-4.22-1.81-1.49-4.51-2.37-6.87-2.17-8.57.75-11.54,5.6-12.13,10.32-.19,1.5.05,3.03.68,4.41l.13.29c1.29,2.84,3.92,5.07,6.34,6.94,2.42,1.86,9.48,9.11,9.55,13.21.09,5-1.45,9.29-7.87,9.29-6.42,0-11.62-4.06-11.62-9.06,0-.11-.1-1.73-.1-1.84-.15-2.18-1.52.05-1.72,2.18-.1,1.02.77,4.4,3.7,6.91,2.92,2.5,6.41,3.15,10.94,3.15,1.84,0,3.58-.28,5.17-.79,0,0,.02,0,.02.01.11.43.52.76,1.01.76.02,0,.04,0,.07,0,.02,0,.03,0,.05,0h13.91c.66,0,1.55.01,2.54-.01.12-.27-.02-.4-.62-.69-.63-.3-1.5-.5-2.46-.43-.45.03-.88-.15-1.22-.46-.42-.37-.99-.51-1.54-.39-.33,0-.52-.32-.56-.96.12-1.12,7.53-20.53,8.74-23.25.96-2.26,1.83-4.3,2.62-6.14.27-.7.55-1.05.84-1.05s.54.35.75,1.05c.83,2.5,7.52,20.38,8.83,23.88,1.25,3.4,1.93,5.29,2.06,5.69.02.1.04.18.06.24.04.36-.09.54-.41.54h-3.74c-.27,0-.41.15-.41.45v1.17c0,.24.06.36.19.36h13.14c3.35,0,2.61-.35,6.03-.8,0,0,0,0,0,0v.57c0,.13.1.23.23.23h1.65c.13,0,.23-.1.23-.23v-.98s0,0,0-.01c.23-.22.29-.58.2-.99-.06-.27-.14-1.51-.4-1.74-.92-.83-1.62-2.11-1.62-3.15h0s3.07-24.17,3.07-24.17c0,0,0,0,0,0v-3.37c-.02-.11-.03-.21-.05-.32-.18-.91-1.81-4.19-.02-5.4,0,0,.02,0,.03,0,6.78,19.22,15.37,34.75,17.99,38.18,1.01,1.33,2.57,2.17,4.25,2.18,0,0,.02,0,.03,0h7.25c.52,0,1.06-.42,1.1-.94.05-.61-.43-1.13-1.03-1.13h-1.29c-1.49,0-2.38-.21-2.69-.62-.31-.41-.46-1.43-.46-3.04V15.55s0,0,0,0c.4-3.56.17-4.62,2.43-6.48.4-.33,1.02-.2,1.54-.16.13,0,.23.02.27.03.53.19.94.59,1.2,1.09.4.76.83,1.58,1.25,2.39,1.58,3.14,3.45,7.6,5.62,13.39,2.35,6.29,3.67,9.79,3.96,10.48,1.75,4.23,2.79,7.01,3.12,8.33.31,1.16.47,1.92.47,2.28s-.2.79-.59,1.29c-.33.42-.55.68-.64.79-.09.11-.19.23-.3.37,0,.22.07.41.22.57.15.16.3.24.47.24.03,0,.09-.02.2-.05.18-.05.37-.09.56-.14,1.3-.27,2.43-.48,3.39-.62.21-.04.45-.39.72-1.05.33-.86.78-1.84,1.34-2.94.64-1.3,3.35-7.17,8.11-17.61,2.54-5.71,5.01-11.27,7.41-16.69.07-.16.15-.32.23-.47.04-.08.09-.15.13-.22h.07s0,0,0,0c.87.33,1.41.75,1.65,1.24.23.49.34,1.1.34,1.83v33.62c0,.83-.16,1.48-.47,1.95-.31.47-.81.84-1.5,1.11-.44.17-1.19.29-2.25.37-.92.07-2.21.16-3.14-.22-.4-.17-1.11-.97-1.47-.74-.37.24-.63.73-.47,1.17.27.76.96,1.75,1.53,2.08.13.07.27.11.42.11h20.63s8.49,0,8.49,0c.66,0,1.55.01,2.54-.01.12-.27-.02-.4-.62-.69-.63-.3-1.5-.5-2.46-.43-.45.03-.88-.15-1.22-.46-.42-.37-.99-.51-1.54-.39-.33,0-.52-.32-.56-.96.12-1.12,7.53-20.53,8.74-23.25.96-2.26,1.83-4.3,2.62-6.14.27-.7.55-1.05.84-1.05s.54.35.75,1.05c.83,2.5,7.52,20.38,8.83,23.88,1.25,3.4,1.93,5.29,2.06,5.69.02.1.04.18.06.24.04.36-.09.54-.41.54h-3.74c-.27,0-.41.15-.41.45v1.17c0,.24.06.36.19.36h10.3s0,0,0,0h7.02s.03,0,.05,0c.02,0,.04,0,.07,0,.57,0,1.04-.44,1.04-.99s-.46-.99-1.04-.99Z"/>
  <path class="cls-2" d="M198.17,10.97c-.14-.24-.34-.45-.59-.59l-.97-.56.56-.96c.44-.77.18-1.76-.59-2.2-.24-.14-.52-.21-.81-.21h-1.11v-1.11c0-.89-.72-1.61-1.61-1.61-.28,0-.56.08-.8.22l-.97.56-.56-.97c-.21-.37-.56-.64-.98-.75-.42-.11-.85-.05-1.22.16-.24.14-.45.34-.59.59l-.56.97-.96-.56c-.77-.44-1.76-.18-2.2.59-.14.24-.21.52-.21.81v1.11h-1.11c-.89,0-1.61.72-1.61,1.61,0,.28.08.56.22.8l.56.97-.96.56c-.37.22-.64.56-.75.98-.11.42-.05.85.16,1.22.14.24.34.45.59.59l.97.56-.56.96c-.44.77-.18,1.76.59,2.2.24.14.52.21.81.21h1.11v1.11c0,.89.72,1.61,1.61,1.61.28,0,.56-.07.8-.22l.97-.56.56.96c.22.37.56.64.98.75.14.04.28.06.42.06.28,0,.55-.07.8-.22.24-.14.45-.34.59-.59l.56-.97.96.56c.25.14.52.22.8.22.14,0,.28-.02.42-.06.42-.11.76-.38.98-.75.14-.24.21-.52.21-.81v-1.11h1.11c.89,0,1.61-.72,1.61-1.61,0-.28-.07-.56-.22-.8l-.56-.97.97-.56c.37-.21.64-.56.75-.98.11-.42.05-.85-.16-1.22ZM191.91,16.2h-1.26l1.84-1.06-.56.97s-.02.06-.02.09ZM189.35,16.91l-1.09-.63h2.12l-.97.56s-.05.04-.06.07ZM186.79,16.24l-.63-1.09,1.84,1.06h-1.11s-.07.01-.09.03ZM184.2,11.81l.63-1.09v2.12l-.56-.97s-.04-.05-.07-.06ZM186.73,7.36h1.26l-1.84,1.06.56-.97s.02-.06.02-.09ZM189.29,6.66l1.09.63h-2.12l.97-.56s.05-.04.06-.07ZM191.86,7.33l.63,1.09-1.84-1.06h1.11s.07-.01.09-.03ZM194.45,11.75l-.63,1.09v-2.12l.56.97s.04.05.07.06ZM193.72,9.19s.01,0,.02,0v1.26l-1.06-1.84.97.56s.05.02.08.02ZM189.48,15.82c-.8,0-1.42-.11-1.93-.56-.52-.44-.67-1.04-.65-1.22.04-.38.28-.77.3-.39,0,.02.02.3.02.32,0,.88.92,1.6,2.05,1.6s1.4-.76,1.39-1.64c-.01-.72-1.26-2-1.69-2.33-.43-.33-.89-.72-1.12-1.22l-.02-.05c-.1-.22-.15-.47-.12-.72.09-.85.6-1.74,2.15-1.88.42-.04.89.12,1.21.38.42.37.3.67.29.75-.02.15-.12.25-.2.37-.1.17-.25.2-.16.37.08.14.37.4.42.55.05.17-.11.23-.22.3-.07.04-.24.13-.28.2-.04.08-.04.17-.04.25,0,.14.11.25.01.37-.1.12-.27.14-.42.14-.18,0-.33-.03-.52-.09-.05-.02-.05-.07-.01-.11.05-.04.12,0,.17.02.1.03.2.06.3.06.07,0,.18-.02.24-.06.12-.08.09-.3.09-.42,0-.13.03-.26.13-.35.04-.04.09-.08.15-.11.05-.03.14-.06.16-.12.02-.07-.05-.16-.09-.22-.04-.06-.08-.12-.12-.18-.07-.11-.14-.24-.13-.38,0-.14.08-.24.14-.35.06-.11.15-.2.11-.36-.07-.26-.12-.46-.33-.45-.39.03-.72-.03-.94.15-.55.47-.16.57-.42.89-.4.49-.88,0-1.01.38-.16.73.79.15,1.08,1.9.01.08.05.14.13.2.45.32.91.63,1.32,1,.75.67.81,1.02.82,1.33.02.91-1.01,1.66-2.26,1.66ZM185.96,8.62l-1.06,1.84v-1.11s-.01-.07-.03-.09l1.09-.63ZM184.9,14.37v-1.26l1.06,1.84-.97-.56s-.06-.02-.09-.02ZM193.74,13.11v1.11s.01.07.03.09l-1.09.63,1.06-1.84ZM195.77,6.75c.23,0,.46.06.65.17.63.36.84,1.16.48,1.79l-2.86,4.95v-.61l2.59-4.49c.18-.31.18-.69,0-1-.18-.31-.51-.5-.87-.5h-1.11v-.3h1.11ZM192.39,4.2c.2-.12.43-.18.65-.18.72,0,1.31.59,1.31,1.31v5.71l-.3-.53v-5.18c0-.36-.19-.69-.5-.87-.31-.18-.69-.18-1,0l-.97.56-.15-.26.97-.56ZM187.63,4.64l.56-.97c.12-.2.28-.37.48-.48.3-.17.65-.22.99-.13.34.09.62.31.79.61l2.86,4.95-.53-.3-2.59-4.49c-.18-.31-.51-.5-.87-.5h0c-.36,0-.69.19-.87.5l-.56.97-.17-.1-.1-.06ZM184.29,5.33c0-.23.06-.46.17-.65.36-.62,1.16-.84,1.79-.48l1.27.73.35.2s0,0,0,0l3.32,1.92h-.61l-4.49-2.59c-.31-.18-.69-.18-1,0-.31.18-.5.51-.5.87v1.11h-.3v-1.11ZM181.74,8.71c-.12-.2-.18-.43-.18-.65,0-.72.59-1.31,1.31-1.31h5.71l-.53.3h-5.18c-.36,0-.69.19-.87.5s-.18.69,0,1l.56.97-.26.15-.56-.97ZM181.22,12.91c-.2-.12-.37-.28-.48-.48-.36-.62-.15-1.43.48-1.79l1.1-.63h0l.53-.3s0,0,0,0l3.32-1.92-.3.53-4.49,2.59c-.31.18-.5.51-.5.87s.19.69.5.87l.97.56-.15.26-.96-.56ZM182.87,16.81c-.23,0-.46-.06-.65-.17-.63-.36-.84-1.16-.48-1.79l.63-1.1s0,0,0,0l.3-.53s0,0,0,0l1.92-3.32v.61l-2.59,4.49c-.18.31-.18.69,0,1,.18.31.51.5.87.5h1.11v.3h-1.11ZM187.22,18.81l-.97.56c-.2.12-.43.18-.65.18-.72,0-1.31-.59-1.31-1.31v-5.71l.3.53v5.18c0,.36.19.69.5.87s.69.18,1,0l.96-.56.07.13.08.14ZM190.45,19.88c-.12.2-.28.37-.48.48-.3.17-.65.22-.99.13-.34-.09-.62-.31-.79-.61l-.79-1.37-.15-.26s0,0,0,0l-1.92-3.32.53.3,2.59,4.49c.18.31.51.5.87.5s.69-.19.87-.5l.56-.97.23.13.04.02-.56.97ZM194.35,18.23c0,.23-.06.46-.17.65-.17.3-.46.52-.8.61-.34.09-.69.04-.99-.13l-4.95-2.86h.61l4.49,2.59c.31.18.69.18,1,0,.31-.18.5-.51.5-.87v-1.11h.3v1.11ZM197.08,15.5c0,.72-.59,1.31-1.31,1.31h-5.71l.53-.3h5.18c.36,0,.69-.19.87-.5s.18-.69,0-1l-.56-.97.26-.15.56.97c.12.2.18.43.18.65ZM198.03,12.12c-.09.34-.31.62-.61.79l-4.95,2.86.3-.53,4.49-2.59c.31-.18.5-.51.5-.87s-.19-.69-.5-.87l-.97-.56.15-.26.97.56c.2.12.37.28.48.48.17.3.22.65.13.99Z"/>
</svg>