<?xml version="1.0" encoding="UTF-8"?>
<svg id="_圖層_4" data-name="圖層 4" xmlns="http://www.w3.org/2000/svg" viewBox="0 0 486.02 486.02">
  <defs>
    <style>
      .cls-1 {
        stroke-linecap: round;
        stroke-linejoin: round;
      }

      .cls-1, .cls-2 {
        fill: none;
        stroke: #c0afc3;
        stroke-width: 2px;
      }

      .cls-2 {
        stroke-miterlimit: 10;
      }

      .cls-3 {
        fill: #c0afc3;
      }
    </style>
  </defs>
  <g>
    <path class="cls-3" d="M100.54,266.6c-8.54-7.67-18.03-14.12-27.41-20.67-1.61-1.12-2.45-2.54-2.71-4.1-6.04-36.25-25.71-24.33-22.38-39.4,2.62-7.66,12.71,2.41,20.89-7.77,5.34-6.65-2.72-8.65,8.71-18.47,4.48-3.85,11.41-2.66,19.38-3.18,4.28-.28,5.3,3.99,6.73,9.33.89,3.33-.89,5.23-2.18,7.49-1.36,2.38-2.93,4.43-2.97,7.29-.04,2.83,1.27,5.56,2.76,7.89.82,1.28,1.72,2.5,2.54,3.77.73,1.13,2.27,3.1,1.8,4.46-.39,1.14-2.22,1.79-3.23,2.44-1.08.69-2.1,1.43-3,2.35-2,2.04-2.64,4.55-2.71,7.34-.07,2.48.64,7.03-1.91,8.65-1.31.83-3.57,1.38-5.04,1.28-2.14-.15-4.27-.6-6.29-1.3-1.11-.39-2.62-1.27-3.57-.46-.73.63-.82,1.8.26,2.17,3.93,1.37,7.1,1.94,10.83,1.9,3.09-.03,6.57-.36,8.67-2.92,1.94-2.37-.25-4.71-.27-7.62-.01-1.77-.03-3.61.78-5.23.75-1.52,4.36-3.35,5.75-4.24,2.38-1.53,5.67-2.89,4.58-6.31-1.05-3.28-6.94-8.52-8.62-11.48-2-3.51,1.07-4.12,3.23-7.58,1.62-2.59,3.74-4.65,4.17-7.71.21-1.5,2.59-7.71-6.02-15.43-6.61-5.46-16.48-8.67-25.11-7.92-32.01,2.81-42.63,21.26-44.43,38.89-.52,5.08.47,10.2,2.57,14.86l.51,1.12c4.73,10.38,14.32,18.52,23.18,25.34,8.83,6.8,34.62,33.27,34.9,48.24.34,18.28-5.29,33.92-28.73,33.92-23.44,0-42.45-14.82-42.45-33.1,0-.42-.35-6.33-.38-6.72-.56-7.98-5.56.19-6.3,7.98-.35,3.71,2.81,16.08,13.51,25.23,10.67,9.13,23.41,11.51,39.97,11.51,25.88,0,47.18-15.35,46.86-34.29-.11-6.42-1.38-13.65-16.87-27.56Z"/>
    <g>
      <path class="cls-3" d="M246.3,215.02c-.32-6.87-.72-13.74-1.22-20.6-.02-.3-.06-.64-.33-1.15-.73-1.4-1.85-3.56-2.42-4.76-3-6.3-15.9-30.93-34.23-30.93h-15.08c-1.18,0-2.13.95-2.13,2.13s.95,2.13,2.13,2.13h2.66c3.06,0,4.91.43,5.54,1.28.63.85.95,2.94.95,6.27v65.11h0c-.83,7.34-.35,9.51-5.01,13.36-.82.68-2.1.4-3.17.32-.26-.02-.48-.04-.55-.07-1.08-.39-1.94-1.22-2.47-2.24-.82-1.56-1.72-3.25-2.57-4.92-3.26-6.46-7.11-15.66-11.57-27.59-4.84-12.96-7.56-20.16-8.16-21.6-3.6-8.72-5.74-14.44-6.43-17.16-.64-2.39-.96-3.95-.96-4.69s.41-1.63,1.22-2.65c.69-.86,1.13-1.41,1.32-1.64.19-.23.4-.48.61-.77,0-.45-.15-.84-.45-1.17-.3-.33-.62-.49-.96-.49-.05,0-.19.03-.42.1-.37.09-.77.19-1.14.29-2.68.55-5.01.98-6.99,1.28-.43.08-.92.8-1.48,2.16-.69,1.77-1.61,3.79-2.76,6.05-1.33,2.68-6.9,14.77-16.71,36.29-5.24,11.76-10.33,23.22-15.28,34.38-.14.33-.3.65-.48.96-1.21,2.11-2.19,3.17-2.95,3.17h-9.21s-.03,0-.04,0c-.02,0-.05,0-.07,0-1.18,0-2.14.91-2.14,2.04s.96,2.04,2.14,2.04c.05,0,.09-.01.14-.01.04,0,.06.01.1.01h28.67c1.35,0,3.2.02,5.24-.03.24-.55-.03-.82-1.27-1.41-1.29-.61-3.08-1.03-5.07-.88-.92.07-1.82-.32-2.52-.95-.86-.77-2.05-1.04-3.17-.81-.69,0-1.07-.66-1.16-1.98.26-2.3,15.51-42.3,18-47.9,1.97-4.65,3.77-8.87,5.4-12.65.56-1.44,1.14-2.16,1.74-2.16s1.11.72,1.54,2.16c1.71,5.14,15.49,41.99,18.19,49.19,2.57,7,3.99,10.9,4.24,11.73.04.21.09.37.13.49.09.74-.19,1.11-.84,1.11h-7.71c-.56,0-.84.31-.84.93v2.41c0,.49.13.74.39.74h27.07c6.9,0,5.38-.72,12.41-1.65,0,0,0,0,0,0v1.21c0,.25.2.44.44.44h3.46c.25,0,.44-.2.44-.44v-2.06s0,0,0,0c.47-.46.62-1.2.43-2.04-.12-.55-.3-3.1-.83-3.58-1.89-1.72-3.34-4.34-3.34-6.49h0s6.59-51.87,6.59-51.87h0c.14-1.86-.01-3.72-.37-5.55-.38-1.94-4.02-9.14.36-11.41,4.06-2.1,21.76,29.54,31.15,47.02.48.9,1.85.52,1.8-.5Z"/>
      <path class="cls-3" d="M466.84,247.91s-.05,0-.07,0c-.01,0-.03,0-.04,0h-4.96s0,0,0,0h-4.12c-.99,0-2.66-2.3-5.01-6.91-3.26-6.46-7.11-15.66-11.57-27.59-4.84-12.96-7.56-20.16-8.16-21.6-3.6-8.72-5.74-14.44-6.43-17.16-.64-2.39-.96-3.95-.96-4.69s.41-1.63,1.22-2.65c.69-.86,1.13-1.41,1.32-1.64.19-.23.4-.48.61-.77,0-.45-.15-.84-.45-1.17-.3-.33-.62-.49-.96-.49-.05,0-.19.03-.42.1-.37.09-.77.19-1.14.29-2.68.55-5.01.98-6.99,1.28-.43.08-.92.8-1.48,2.16-.69,1.77-1.61,3.79-2.76,6.05-1.33,2.68-6.9,14.77-16.71,36.29-5.21,11.69-10.27,23.08-15.18,34.18-.21.46-.43.92-.68,1.36,0,.02-.02.03-.03.05-.9,1.53-2.67,2.34-4.43,2.04-.47-.08-.95-.17-1.46-.27-2.04-.41-3.5-.78-4.4-1.13-1.5-.64-2.56-1.51-3.18-2.6-.62-1.09-.93-2.35-.93-3.76v-69.21c0-1.41.28-2.7.84-3.86.56-1.16,1.65-1.99,3.28-2.51,1.32-.41,2.86-.75,4.62-1.03.43-.05.88-.09,1.37-.13,1.9-.15,4.56-.33,6.46.45.83.34,2.28,2,3.02,1.52.75-.49,1.3-1.5.98-2.4-.56-1.58-1.99-3.61-3.15-4.29-.26-.15-.56-.23-.86-.23h-42.51.03s-8.9,0-8.9,0c-1.35,0-3.2-.02-5.24.03-.24.55.03.82,1.27,1.41,1.29.61,3.08,1.03,5.07.88.92-.07,1.82.32,2.52.95.86.77,2.05,1.04,3.17.81.69,0,1.07.66,1.16,1.98-.26,2.3-15.51,42.3-18,47.9-1.97,4.65-3.77,8.87-5.4,12.65-.56,1.44-1.14,2.16-1.74,2.16s-.88-.81-1.54-2.16c-2.54-5.14-25.45-49.79-26.24-55.86-.53-4.09,1.68-6.86,5.8-6.86.58,0,6.42.2,6.42.2.01,0,.02,0,.03,0h3.81s.07-.01.1-.01c.05,0,.09.01.14.01,1.18,0,2.14-.91,2.14-2.04s-.96-2.04-2.14-2.04c-.02,0-.05,0-.07,0-.01,0-.03,0-.04,0h-4.97s-25.62,0-25.62,0c-6.9,0-5.38.72-12.41,1.65,0,0,0,0,0,0v-1.21c0-.25-.2-.44-.44-.44h-3.46c-.25,0-.44.2-.44.44v2.06s0,0,0,0c-.47.46-.62,1.2-.43,2.04.12.55.3,3.1.83,3.58,1.89,1.72,3.34,4.34,3.34,6.49h0s-6.59,51.87-6.59,51.87h0c-.14,1.86.01,3.72.37,5.55.38,1.94,4.02,9.14-.36,11.41-4.07,2.1-21.77-29.55-31.15-47.03-.48-.89-1.84-.51-1.8.5.32,6.88.72,13.75,1.22,20.61.02.3.06.64.33,1.15.73,1.4,1.85,3.56,2.42,4.76,3,6.3,15.9,30.93,34.23,30.93h14.97c1.06,0,2.05-.73,2.22-1.77.22-1.34-.81-2.49-2.1-2.49h-2.66c-3.06,0-4.91-.43-5.54-1.28-.63-.85-.95-2.94-.95-6.27v-65.11c.83-7.34.35-9.51,5.01-13.36.82-.68,2.1-.4,3.17-.32.26.02.48.04.55.07,1.08.39,1.94,1.22,2.47,2.24.82,1.56,1.72,3.25,2.57,4.92,3.26,6.46,7.11,15.66,11.57,27.59,4.84,12.96,7.56,20.16,8.16,21.6,3.6,8.72,5.74,14.44,6.43,17.16.64,2.39.96,3.95.96,4.69s-.41,1.63-1.22,2.65c-.69.86-1.13,1.41-1.32,1.64-.19.23-.4.48-.61.77,0,.45.15.84.45,1.17.3.33.62.49.96.49.05,0,.19-.03.42-.1.37-.09.77-.19,1.14-.29,2.68-.55,5.01-.98,6.99-1.28.43-.08.92-.8,1.48-2.16.69-1.77,1.61-3.79,2.76-6.05,1.33-2.68,6.9-14.77,16.71-36.29,5.24-11.76,10.33-23.22,15.28-34.38.14-.33.3-.65.48-.96.09-.16.18-.31.27-.46h.14s0,0,0,0c1.78.69,2.91,1.54,3.39,2.56.47,1.01.71,2.26.71,3.76v69.27c0,1.71-.32,3.05-.96,4.02s-1.67,1.73-3.09,2.28c-.9.34-2.44.6-4.63.77-1.9.15-4.56.33-6.46-.45-.83-.34-2.28-2-3.02-1.52-.75.49-1.3,1.5-.98,2.4.56,1.58,1.99,3.61,3.15,4.29.26.15.56.23.86.23h42.51s17.48,0,17.48,0c1.35,0,3.2.02,5.24-.03.24-.55-.03-.82-1.27-1.41-1.29-.61-3.08-1.03-5.07-.88-.92.07-1.82-.32-2.52-.95-.86-.77-2.05-1.04-3.17-.81-.69,0-1.07-.66-1.16-1.98.26-2.3,15.51-42.3,18-47.9,1.97-4.65,3.77-8.87,5.4-12.65.56-1.44,1.14-2.16,1.74-2.16s1.11.72,1.54,2.16c1.71,5.14,15.49,41.99,18.19,49.19,2.57,7,3.99,10.9,4.24,11.73.04.21.09.37.13.49.09.74-.19,1.11-.84,1.11h-7.71c-.56,0-.84.31-.84.93v2.41c0,.49.13.74.39.74h21.23s0,0,0,0h14.47s.07-.01.1-.01c.05,0,.09.01.14.01,1.18,0,2.14-.91,2.14-2.04s-.96-2.04-2.14-2.04Z"/>
    </g>
  </g>
  <g>
    <path class="cls-2" d="M471.18,304.44h-.02s-22.46.19-22.46.19c-.34.03-.58-.15-.75-.4l-1.9-2.86c-.59-.89-1.62-1.4-2.68-1.3-1.06.08-2,.73-2.44,1.7l-1.12,2.42-2.09.37c-.78.14-1.49.55-2.01,1.14l-2.93-18.83c-.17-1.09-1.12-1.89-2.24-1.86-1.1.04-2.01.89-2.11,1.99l-1.65,17.7c-.5-.72-1.24-1.29-2.14-1.65-.5-.19-.96-.63-1.3-1.24l-1.11-1.97c-.5-.88-1.44-1.47-2.45-1.39-1.14.09-2.04.89-2.27,1.99l-.81,3.89-4.23-9.35c-.44-.97-1.43-1.55-2.52-1.43-.85.09-1.57.66-1.96,1.41l-4.74,8.94c-.61,1.14-1.78,1.87-3.07,1.91l-7.87.25-2.9-3.65c-.43-.54-1.01-.96-1.69-1.1-1.36-.29-2.65.35-3.25,1.5l-1.04,1.98c-.36.68-1.05,1.11-1.82,1.15-.84.04-1.65.35-2.29.88l-3.34-14.77c-.24-1.05-1.19-1.81-2.26-1.75-1.07.03-1.98.82-2.15,1.88l-2.24,13.6c-.53-.61-1.31-1.06-2.03-1.47l-.18-.11c-.21-.12-.37-.31-.47-.54l-1.41-3.41c-.3-.73-.94-1.31-1.73-1.41-1.21-.16-2.26.69-2.41,1.83l-.54,3.93-4.62-8.13c-.59-1.03-1.7-1.71-2.88-1.65,0,0,0,0,0,0-1.2.01-2.29.68-2.86,1.73l-2.35,4.4c-1.15,2.14-3.37,3.5-5.81,3.52l-2.13.03c3.81-5.88,5.47-13.32,4.39-20.32-.86-5.58-3.84-13.37-13.18-18.83-17.68-10.33-32.22,7.42-35.2,11.45-2.98-4.03-17.52-21.78-35.2-11.45-9.34,5.46-12.32,13.25-13.18,18.83-1.08,7,.58,14.44,4.39,20.32l-2.13-.03c-2.43-.03-4.66-1.38-5.81-3.52l-2.35-4.4c-.56-1.05-1.66-1.72-2.86-1.73,0,0,0,0,0,0-1.19-.07-2.3.61-2.88,1.65l-4.62,8.13-.52-3.79c-.11-.79-.58-1.52-1.31-1.82-1.13-.47-2.37.09-2.8,1.15l-1.46,3.52c-.1.23-.26.42-.47.54l-.18.11c-.72.41-1.5.86-2.03,1.47l-2.24-13.6c-.17-1.06-1.08-1.85-2.15-1.88-1.07-.06-2.02.71-2.26,1.75l-3.34,14.77c-.64-.53-1.45-.84-2.29-.88-.77-.03-1.46-.46-1.82-1.15l-1.04-1.98c-.6-1.15-1.89-1.79-3.25-1.5-.67.15-1.26.56-1.69,1.1l-2.9,3.65-7.87-.25c-1.29-.04-2.46-.77-3.07-1.91l-4.74-8.94c-.4-.75-1.12-1.32-1.96-1.41-1.09-.11-2.08.47-2.52,1.43l-4.23,9.35-.78-3.73c-.21-1-.93-1.86-1.92-2.09-1.11-.26-2.21.24-2.76,1.21l-1.17,2.09c-.34.61-.8,1.04-1.3,1.24-.9.35-1.64.93-2.14,1.65l-1.65-17.7c-.1-1.1-1.01-1.96-2.11-1.99-1.12-.03-2.07.76-2.24,1.86l-2.93,18.83c-.52-.59-1.23-1-2.01-1.14l-2.09-.37-1.12-2.42c-.45-.97-1.38-1.62-2.44-1.7-1.06-.09-2.08.42-2.68,1.3l-1.9,2.86c-.17.25-.41.43-.75.4l-22.46-.19h-.02c-.72,0-1.44.36-1.76,1.01-.74,1.49.32,2.98,1.74,2.99l22.46.19c1.64-.02,3.2-.8,4.11-2.18l.85-1.28.44.96c.48,1.03,1.43,1.76,2.55,1.96l2.14.38,1.5,2.24c.58.86,1.58,1.41,2.61,1.27,1.17-.16,2.06-1.05,2.24-2.19l1.24-7.95,1.2,12.89c.1,1.08.96,1.92,2.03,2,1.08.07,2.05-.62,2.31-1.67l2.01-8.03c.02-.06.11-.15.32-.24.95-.37,1.81-1,2.52-1.83l1.12,5.35c.16.77.67,1.45,1.41,1.72,1.16.43,2.4-.11,2.88-1.18l5.14-11.35,3.33,6.29c1.28,2.41,3.75,3.95,6.48,4.04l8.01.25c1.16.03,2.3-.49,3.03-1.4l2.02-2.54.27.52c1.01,1.92,2.97,3.18,5.14,3.29l1.22,1.39c.52.59,1.26.98,2.05.97,1.28-.02,2.31-.88,2.58-2.07l1.93-8.54,2.89,17.55c.18,1.07,1.11,1.86,2.18,1.86.03,0,.07,0,.11,0,1.12-.05,2.03-.94,2.1-2.06l.75-10.84c.22-.14.51-.3.71-.42l.19-.11c.31-.18.59-.38.85-.62l.34,2.5c.12.85.61,1.63,1.38,2,1.21.58,2.59.1,3.22-1l6.22-10.94,1.74,3.26c1.84,3.43,5.39,5.59,9.28,5.63l6.24.07c.79,0,1.52-.45,1.85-1.18.33-.72.19-1.57-.34-2.16-4.75-5.25-7.11-13.26-6.01-20.42.73-4.72,3.27-11.32,11.25-15.98,16.49-9.63,31.9,13.03,33.18,13.03s16.69-22.66,33.18-13.03c7.98,4.66,10.52,11.26,11.25,15.98,1.1,7.16-1.25,15.17-6.01,20.42-.53.59-.67,1.44-.34,2.16.33.72,1.05,1.17,1.85,1.18l6.24-.07c3.89-.05,7.45-2.21,9.28-5.64l1.74-3.26,6.22,10.94c.63,1.1,2.01,1.58,3.22,1,.77-.37,1.26-1.15,1.38-2l.34-2.5c.26.24.55.44.85.62l.19.11c.2.12.49.28.71.42l.75,10.84c.08,1.12.98,2.01,2.1,2.06.04,0,.07,0,.11,0,1.08,0,2.01-.78,2.18-1.86l2.89-17.55,1.91,8.45c.17.77.65,1.47,1.35,1.83,1.13.59,2.45.32,3.25-.59l1.27-1.46c2.17-.11,4.13-1.36,5.14-3.29l.27-.52,2.02,2.54c.73.91,1.87,1.43,3.03,1.4l8.01-.25c2.73-.09,5.2-1.63,6.48-4.04l3.33-6.29,5.14,11.35c.48,1.07,1.72,1.61,2.88,1.18.74-.27,1.25-.95,1.41-1.72l1.12-5.35c.71.83,1.57,1.46,2.52,1.83.21.08.31.18.32.24l2.01,8.03c.26,1.05,1.23,1.74,2.31,1.67,1.08-.08,1.93-.92,2.03-2l1.2-12.89,1.22,7.86c.13.86.64,1.65,1.42,2.03,1.24.61,2.63.19,3.35-.88l1.58-2.37,2.14-.38c1.12-.2,2.07-.93,2.55-1.96l.44-.95.85,1.28c.92,1.38,2.48,2.16,4.11,2.18l22.46-.19c1.42-.01,2.48-1.5,1.74-2.99-.32-.65-1.04-1.01-1.76-1.01Z"/>
    <path class="cls-2" d="M330.97,311.16c-.76-.71-1.95-.67-2.66.09-5.64,6.04-31.97,15.43-32.37,15.43s-26.74-9.39-32.37-15.43c-.71-.76-1.9-.8-2.66-.09-.76.71-.8,1.9-.09,2.66,4.74,5.08,34.73,16.62,35.13,16.62s30.39-11.55,35.13-16.62c.71-.76.67-1.95-.09-2.66Z"/>
    <path class="cls-1" d="M264.65,274.83s-9.65,5-7.13,17.62"/>
  </g>
</svg>